<?xml version="1.0" encoding="utf-8"?>
<!-- Generator: Adobe Illustrator 26.0.1, SVG Export Plug-In . SVG Version: 6.00 Build 0)  -->
<svg version="1.1" id="Layer_1" xmlns="http://www.w3.org/2000/svg" xmlns:xlink="http://www.w3.org/1999/xlink" x="0px" y="0px"
	 viewBox="0 0 500 500" style="enable-background:new 0 0 500 500;" xml:space="preserve">
<g>
	<path d="M331.2,47.1h-76v51.7h76c24.1,0,43.6,19.5,43.6,43.6v141.3c0,24.1-19.5,43.6-43.6,43.6h-58c-15.6,12.3-35.2,25.3-58.7,36.3
		c-14.1,6.6-27.8,11.6-40.6,15.4h157.3c52.7,0,95.3-42.7,95.3-95.3V142.5C426.5,89.8,383.8,47.1,331.2,47.1z M168.8,98.9h49.4V47.1
		h-49.4c-52.6,0-95.3,42.7-95.3,95.3v141.4c0,40.7,25.5,75.5,61.4,89.1c7-8.3,14.3-19.8,19.3-35c1.3-4.1,2.4-8.1,3.2-12.1
		c-18.5-5-32.3-22-32.3-42.1V142.5C125.2,118.4,144.7,98.9,168.8,98.9z"/>
	<g>
		<path d="M173.9,379.1c17.3,15.3,41.5,33.3,72.5,47.8c38.4,18,73.1,24,97.8,26c-6.5-4.5-27.1-19.9-37.5-51.7
			c-9.7-29.7-4.9-55.9-2.9-64.9c-7.2,9.6-19.4,22.8-38.2,30.1c-8.8,3.4-16.5,4.4-31.6,6.1C207.1,375.4,186.4,377.7,173.9,379.1z"/>
	</g>
	<g>
		<circle cx="191.9" cy="215.3" r="16.6"/>
	</g>
	<g>
		<circle cx="251.2" cy="215.3" r="16.6"/>
	</g>
	<g>
		<circle cx="310.4" cy="215.3" r="16.6"/>
	</g>
</g>
</svg>
