<svg width="49" height="54" viewBox="0 0 49 54" fill="none" xmlns="http://www.w3.org/2000/svg">
  <path d="M41.27 16.24C38.86 12.97 34.33 11.43 28.77 11.56C32.01 18.36 25.77 29.14 14.33 36.74C19.96 29.34 21.9 21.69 18.69 16.31C18.1612 15.4568 17.5186 14.6797 16.78 14C13.5118 15.1804 10.3668 16.6775 7.39 18.47C5.52159 19.5881 3.72171 20.817 2 22.15L1 13.48C0.926635 12.8327 1.02691 12.1775 1.29052 11.5817C1.55414 10.9859 1.97159 10.4711 2.5 10.09C3.42 9.43 4.36 8.79 5.34 8.17C5.74 7.92 6.15 7.66 6.56 7.42C20.9 -1.16 36.29 -1.82 40.93 5.94C42.64 8.78 42.66 12.39 41.27 16.24Z" fill="black" />
  <path d="M48.76 34.57L48 41.4C47.9145 42.1717 47.5885 42.8969 47.068 43.473C46.5475 44.0491 45.859 44.4469 45.1 44.61L13.55 51.45L5.4 53.21L4.58 45.8C4.48055 44.8716 4.73385 43.9398 5.28961 43.1895C5.84536 42.4393 6.66294 41.9254 7.58 41.75C8.58 41.56 9.58 41.32 10.63 41.04C15.1104 39.7767 19.3992 37.9131 23.38 35.5C32.38 30.09 38.9 22.82 41.27 16.24C41.4367 16.4733 41.5967 16.7133 41.75 16.96C44.94 22.29 42.24 30.21 35.59 37.42L48.76 34.57Z" fill="#FFD74A" />
</svg>