<svg width="62" height="53" viewBox="0 0 62 53" fill="none" xmlns="http://www.w3.org/2000/svg">
<path d="M32.0621 51.7483C31.5746 51.7169 31.09 51.6501 30.6121 51.5483C29.9921 51.4283 29.6922 51.0983 29.7122 50.5483C29.7298 50.1759 29.8785 49.8217 30.1322 49.5483C30.4022 49.2283 30.6422 48.9583 30.8722 48.7283C32.3022 47.2783 33.8722 45.7283 35.6319 44.1783C37.3919 42.6283 39.0919 40.9283 40.7919 39.1783C42.4559 37.5271 43.9999 35.7593 45.4119 33.8883C46.6889 32.1475 47.6999 30.2265 48.4119 28.1883C48.4919 27.9283 48.6119 27.5183 48.7619 26.9683C48.8879 26.5817 48.9719 26.1828 49.0119 25.7783C49.1039 24.4781 48.6839 23.1936 47.8419 22.1983C47.4119 21.7149 46.8829 21.3285 46.2919 21.0647C45.6999 20.8009 45.0599 20.6658 44.4119 20.6683C43.2219 20.6086 42.0339 20.8385 40.9519 21.3383C40.4199 21.613 39.9789 22.038 39.6859 22.5606C39.3929 23.0833 39.2589 23.6806 39.3019 24.2783C39.2379 24.9653 39.3629 25.6567 39.6619 26.2783C39.9019 26.7404 40.1689 27.1879 40.4619 27.6183C40.7179 27.991 40.8439 28.4371 40.8219 28.8883C40.8189 29.1291 40.7499 29.3644 40.6219 29.5683C40.4939 29.7762 40.3539 29.9765 40.2019 30.1683C39.5319 31.0083 38.7519 31.9583 37.8419 32.9983C36.9319 34.0383 36.1119 34.9383 35.3819 35.7083C35.2019 35.8968 35.0049 36.0676 34.7922 36.2183C34.57 36.3636 34.3071 36.4337 34.0422 36.4183C33.6418 36.3905 33.2635 36.2244 32.9721 35.9483C31.7601 34.9069 30.7616 33.6402 30.0321 32.2183C29.2423 30.7305 28.657 29.1428 28.2922 27.4983C27.9309 25.9454 27.7729 24.352 27.8222 22.7583C27.8739 19.8723 28.7747 17.0655 30.4122 14.6883C31.9772 12.4622 34.1116 10.6974 36.5919 9.5783C39.1999 8.3966 42.0519 7.85166 44.9119 7.98834H45.6319C48.5029 8.08364 51.3119 8.8508 53.8319 10.2283C56.2809 11.5564 58.3469 13.4917 59.8319 15.8483C61.3639 18.3054 62.0909 21.1787 61.9119 24.0683C61.8359 25.9618 61.3949 27.8226 60.6119 29.5483C59.8679 31.2635 58.9749 32.9099 57.9419 34.4683C57.1279 35.7191 56.2499 36.9273 55.3119 38.0883C54.8649 38.5595 54.4819 39.0874 54.1719 39.6583C54.1719 39.8283 54.2619 39.9383 54.4619 39.9783C54.6099 40.0125 54.7609 40.0359 54.9119 40.0483L58.7119 40.1983C58.9649 40.1801 59.2179 40.218 59.4539 40.3095C59.6899 40.4011 59.9029 40.5438 60.0769 40.7275C60.2509 40.9112 60.3819 41.1312 60.4609 41.3717C60.5399 41.6122 60.5639 41.8673 60.5319 42.1183C60.5669 42.7212 60.5669 43.3255 60.5319 43.9283C60.5319 44.5283 60.4619 45.1383 60.4619 45.7383C60.4619 46.5883 60.4619 47.4383 60.4619 48.3083C60.4619 49.1783 60.4619 50.0383 60.3919 50.8883C60.4249 51.1521 60.3939 51.4199 60.3029 51.6694C60.2109 51.9189 60.0609 52.1429 59.8659 52.3229C59.6699 52.5028 59.4339 52.6335 59.1779 52.704C58.9219 52.7745 58.6519 52.7829 58.3919 52.7283L32.0621 51.7483Z" fill="#FFD74A"/>
<path d="M4.91226 14.3683C4.99226 12.2883 5.04886 10.1983 5.08226 8.09833C5.08226 5.99833 5.20227 3.90833 5.32227 1.83833C5.29817 1.58455 5.33226 1.32863 5.42176 1.08995C5.51126 0.851277 5.65396 0.636107 5.83896 0.460737C6.02396 0.285367 6.24646 0.154397 6.48956 0.0777468C6.73266 0.00109676 6.99006 -0.0192233 7.24226 0.0183267L16.0823 0.358327C16.3442 0.328557 16.6095 0.361607 16.8561 0.454727C17.1027 0.547847 17.3236 0.698367 17.5005 0.893837C17.6774 1.0893 17.8052 1.32408 17.8733 1.57875C17.9414 1.83342 17.9479 2.10065 17.8923 2.35833C17.8123 4.43833 17.7223 6.51833 17.6123 8.61829C17.5023 10.7183 17.4223 12.8083 17.3423 14.8883C17.328 14.9659 17.3319 15.0458 17.3537 15.1216C17.3755 15.1974 17.4146 15.2671 17.4679 15.3253C17.5212 15.3834 17.5873 15.4284 17.6609 15.4567C17.7345 15.485 17.8137 15.4958 17.8923 15.4883L22.6723 15.6683C22.934 15.6413 23.1983 15.6762 23.4441 15.77C23.6899 15.8639 23.9102 16.0142 24.0873 16.2088C24.2644 16.4033 24.3933 16.6368 24.4636 16.8903C24.534 17.1438 24.5438 17.4103 24.4923 17.6683C24.4423 18.9183 24.3823 20.1683 24.3223 21.4183C24.2623 22.6683 24.2123 23.9083 24.1623 25.1583C24.19 25.4113 24.1581 25.6673 24.0692 25.9057C23.9803 26.1442 23.8368 26.3585 23.6502 26.5315C23.4635 26.7045 23.239 26.8314 22.9945 26.9021C22.75 26.9727 22.4924 26.9851 22.2423 26.9383L17.4623 26.7583C17.3824 26.7412 17.2996 26.7428 17.2204 26.763C17.1413 26.7832 17.0678 26.8214 17.0059 26.8746C16.9439 26.9279 16.8951 26.9947 16.8632 27.07C16.8314 27.1452 16.8174 27.2268 16.8223 27.3083C16.6823 30.955 16.5623 34.6217 16.4623 38.3083C16.3623 41.995 16.2389 45.6617 16.0923 49.3083C16.122 49.5703 16.089 49.8355 15.9959 50.0822C15.9027 50.3288 15.7522 50.5497 15.5568 50.7266C15.3613 50.9035 15.1265 51.0313 14.8718 51.0994C14.6172 51.1675 14.3499 51.174 14.0923 51.1183L5.26226 50.7783C4.99996 50.8076 4.73456 50.7743 4.48776 50.6811C4.24086 50.588 4.01966 50.4377 3.84206 50.2426C3.66446 50.0475 3.53566 49.813 3.46616 49.5585C3.39666 49.304 3.38846 49.0366 3.44226 48.7783C3.58226 45.1183 3.74886 41.4517 3.94226 37.7783C4.13556 34.105 4.29886 30.4383 4.43226 26.7783C4.43226 26.3683 4.23226 26.1483 3.77226 26.1283C3.31226 26.1083 2.77226 26.1283 2.19226 26.1283C1.65296 26.1492 1.11686 26.0358 0.632264 25.7983C0.185564 25.5583 -0.0244412 25.0183 0.0022588 24.1783C0.0522588 22.9183 0.0922637 21.6683 0.132264 20.4283C0.172264 19.1883 0.202259 17.9283 0.252259 16.6783C0.252259 15.8083 0.542259 15.2683 1.00226 15.0683C1.50736 14.8704 2.05466 14.805 2.59226 14.8783C3.18226 14.9483 3.70226 14.9883 4.16226 14.9983C4.62226 15.0083 4.90226 14.8083 4.91226 14.3683Z" fill="black"/>
</svg>
