<svg width="239" height="60" viewBox="0 0 239 60" fill="none" xmlns="http://www.w3.org/2000/svg">
<path d="M97.0622 53.3838C96.5747 53.3524 96.0901 53.2856 95.6122 53.1838C94.9922 53.0638 94.6923 52.7338 94.7123 52.1838C94.7299 51.8114 94.8786 51.4572 95.1323 51.1838C95.4023 50.8638 95.6423 50.5938 95.8723 50.3638C97.3023 48.9138 98.8723 47.3638 100.632 45.8138C102.392 44.2638 104.092 42.5638 105.792 40.8138C107.456 39.1626 109 37.3948 110.412 35.5238C111.689 33.783 112.7 31.862 113.412 29.8238C113.492 29.5638 113.612 29.1538 113.762 28.6038C113.888 28.2172 113.972 27.8183 114.012 27.4138C114.104 26.1136 113.684 24.8291 112.842 23.8338C112.412 23.3504 111.883 22.964 111.292 22.7002C110.7 22.4364 110.06 22.3013 109.412 22.3038C108.222 22.2441 107.034 22.474 105.952 22.9738C105.42 23.2485 104.979 23.6735 104.686 24.1961C104.393 24.7188 104.259 25.3161 104.302 25.9138C104.238 26.6008 104.363 27.2922 104.662 27.9138C104.902 28.3759 105.169 28.8234 105.462 29.2538C105.718 29.6265 105.844 30.0726 105.822 30.5238C105.819 30.7646 105.75 30.9999 105.622 31.2038C105.494 31.4117 105.354 31.612 105.202 31.8038C104.532 32.6438 103.752 33.5938 102.842 34.6338C101.932 35.6738 101.112 36.5738 100.382 37.3438C100.202 37.5323 100.005 37.7031 99.7923 37.8538C99.5701 37.9991 99.3072 38.0692 99.0423 38.0538C98.6419 38.026 98.2636 37.8599 97.9722 37.5838C96.7602 36.5424 95.7617 35.2757 95.0322 33.8538C94.2424 32.366 93.6571 30.7783 93.2923 29.1338C92.931 27.5809 92.773 25.9875 92.8223 24.3938C92.874 21.5078 93.7748 18.701 95.4123 16.3238C96.9773 14.0977 99.1117 12.3329 101.592 11.2138C104.2 10.0321 107.052 9.48716 109.912 9.62384H110.632C113.503 9.71914 116.312 10.4863 118.832 11.8638C121.281 13.1919 123.347 15.1272 124.832 17.4838C126.364 19.9409 127.091 22.8142 126.912 25.7038C126.836 27.5973 126.395 29.4581 125.612 31.1838C124.868 32.899 123.975 34.5454 122.942 36.1038C122.128 37.3546 121.25 38.5628 120.312 39.7238C119.865 40.195 119.482 40.7229 119.172 41.2938C119.172 41.4638 119.262 41.5738 119.462 41.6138C119.61 41.648 119.761 41.6714 119.912 41.6838L123.712 41.8338C123.965 41.8156 124.218 41.8535 124.454 41.945C124.69 42.0366 124.903 42.1793 125.077 42.363C125.251 42.5467 125.382 42.7667 125.461 43.0072C125.54 43.2477 125.564 43.5028 125.532 43.7538C125.567 44.3567 125.567 44.961 125.532 45.5638C125.532 46.1638 125.462 46.7738 125.462 47.3738C125.462 48.2238 125.462 49.0738 125.462 49.9438C125.462 50.8138 125.462 51.6738 125.392 52.5238C125.425 52.7876 125.394 53.0554 125.303 53.3049C125.211 53.5544 125.061 53.7784 124.866 53.9584C124.67 54.1383 124.434 54.269 124.178 54.3395C123.922 54.41 123.652 54.4184 123.392 54.3638L97.0622 53.3838Z" fill="#FFD74A"/>
<path d="M69.9123 16.0038C69.9923 13.9238 70.0489 11.8338 70.0823 9.73384C70.0823 7.63384 70.2023 5.54384 70.3223 3.47384C70.2982 3.22006 70.3323 2.96414 70.4218 2.72546C70.5113 2.48679 70.654 2.27162 70.839 2.09625C71.024 1.92088 71.2465 1.78991 71.4896 1.71326C71.7327 1.63661 71.9901 1.61629 72.2423 1.65384L81.0823 1.99384C81.3442 1.96407 81.6095 1.99712 81.8561 2.09024C82.1027 2.18336 82.3236 2.33388 82.5005 2.52935C82.6774 2.72481 82.8052 2.95959 82.8733 3.21426C82.9414 3.46893 82.9479 3.73616 82.8923 3.99384C82.8123 6.07384 82.7223 8.15384 82.6123 10.2538C82.5023 12.3538 82.4223 14.4438 82.3423 16.5238C82.328 16.6014 82.3319 16.6813 82.3537 16.7571C82.3755 16.8329 82.4146 16.9026 82.4679 16.9608C82.5212 17.0189 82.5873 17.0639 82.6609 17.0922C82.7345 17.1205 82.8137 17.1313 82.8923 17.1238L87.6723 17.3038C87.934 17.2768 88.1983 17.3117 88.4441 17.4055C88.6899 17.4994 88.9102 17.6497 89.0873 17.8443C89.2644 18.0388 89.3933 18.2723 89.4636 18.5258C89.534 18.7793 89.5438 19.0458 89.4923 19.3038C89.4423 20.5538 89.3823 21.8038 89.3223 23.0538C89.2623 24.3038 89.2123 25.5438 89.1623 26.7938C89.19 27.0468 89.1581 27.3028 89.0692 27.5412C88.9803 27.7797 88.8368 27.994 88.6502 28.167C88.4635 28.34 88.239 28.4669 87.9945 28.5376C87.75 28.6082 87.4924 28.6206 87.2423 28.5738L82.4623 28.3938C82.3824 28.3767 82.2996 28.3783 82.2204 28.3985C82.1413 28.4187 82.0678 28.4569 82.0059 28.5101C81.9439 28.5634 81.8951 28.6302 81.8632 28.7055C81.8314 28.7807 81.8174 28.8623 81.8223 28.9438C81.6823 32.5905 81.5623 36.2572 81.4623 39.9438C81.3623 43.6305 81.2389 47.2972 81.0923 50.9438C81.122 51.2058 81.089 51.471 80.9959 51.7177C80.9027 51.9643 80.7522 52.1852 80.5568 52.3621C80.3613 52.539 80.1265 52.6668 79.8718 52.7349C79.6172 52.803 79.3499 52.8095 79.0923 52.7538L70.2623 52.4138C70 52.4431 69.7346 52.4098 69.4878 52.3166C69.2409 52.2235 69.0197 52.0732 68.8421 51.8781C68.6645 51.683 68.5357 51.4485 68.4662 51.194C68.3967 50.9395 68.3885 50.6721 68.4423 50.4138C68.5823 46.7538 68.7489 43.0872 68.9423 39.4138C69.1356 35.7405 69.2989 32.0738 69.4323 28.4138C69.4323 28.0038 69.2323 27.7838 68.7723 27.7638C68.3123 27.7438 67.7723 27.7638 67.1923 27.7638C66.653 27.7847 66.1169 27.6713 65.6323 27.4338C65.1856 27.1938 64.9756 26.6538 65.0023 25.8138C65.0523 24.5538 65.0923 23.3038 65.1323 22.0638C65.1723 20.8238 65.2023 19.5638 65.2523 18.3138C65.2523 17.4438 65.5423 16.9038 66.0023 16.7038C66.5074 16.5059 67.0547 16.4405 67.5923 16.5138C68.1823 16.5838 68.7023 16.6238 69.1623 16.6338C69.6223 16.6438 69.9023 16.4438 69.9123 16.0038Z" fill="black"/>
<path d="M140.222 56.1738C138.479 56.0948 136.757 55.7578 135.112 55.1738C133.453 54.6107 131.939 53.6849 130.682 52.4638C130.512 52.3104 130.376 52.122 130.284 51.9115C130.193 51.701 130.148 51.4733 130.152 51.2438C130.216 50.6555 130.353 50.0775 130.562 49.5238C130.822 48.7338 131.102 47.9338 131.412 47.1238C131.722 46.3138 131.942 45.7038 132.082 45.3038C132.22 44.9513 132.398 44.6158 132.612 44.3038C132.722 44.1448 132.873 44.0188 133.05 43.9395C133.226 43.8602 133.42 43.8306 133.612 43.8538C134.486 44.0035 135.316 44.3451 136.042 44.8538C137.093 45.4819 138.289 45.8265 139.512 45.8538C140.224 45.8822 140.934 45.7701 141.602 45.5238C141.934 45.4001 142.217 45.1728 142.41 44.8757C142.603 44.5785 142.695 44.2273 142.672 43.8738C142.687 43.4834 142.603 43.0955 142.428 42.746C142.253 42.3966 141.993 42.0966 141.672 41.8738C140.972 41.3354 140.214 40.8759 139.412 40.5038C138.674 40.1746 137.953 39.8074 137.252 39.4038C135.465 38.3538 134.001 36.8314 133.022 35.0038C132.065 33.1546 131.62 31.0831 131.732 29.0038C131.722 26.8821 132.372 24.8098 133.592 23.0738C134.739 21.5616 136.308 20.4236 138.102 19.8038C140.082 19.1278 142.172 18.8326 144.262 18.9338C145.513 18.9966 146.757 19.1605 147.982 19.4238C149.215 19.6625 150.41 20.0697 151.532 20.6338C151.833 20.7447 152.091 20.9472 152.271 21.2128C152.45 21.4783 152.542 21.7935 152.532 22.1138C152.47 22.5532 152.376 22.9876 152.252 23.4138C152.062 24.1038 151.872 24.8138 151.662 25.5338L151.212 27.0038C151.111 27.3643 150.945 27.7033 150.722 28.0038C150.595 28.1533 150.432 28.2682 150.248 28.3381C150.065 28.408 149.867 28.4306 149.672 28.4038C149.093 28.3706 148.522 28.2457 147.982 28.0338C147.371 27.8006 146.726 27.6689 146.072 27.6438C145.362 27.6292 144.656 27.7514 143.992 28.0038C143.652 28.1237 143.36 28.3498 143.158 28.6487C142.956 28.9477 142.856 29.3036 142.872 29.6638C142.867 30.0574 142.944 30.4477 143.099 30.8094C143.254 31.1712 143.484 31.4964 143.772 31.7638C144.467 32.4751 145.254 33.0906 146.112 33.5938C147.052 34.1638 147.962 34.7138 148.842 35.2238C149.581 35.6376 150.275 36.1268 150.912 36.6838C151.892 37.613 152.586 38.8032 152.912 40.1138C153.266 41.4166 153.424 42.7646 153.382 44.1138C153.343 46.4009 152.69 48.6354 151.492 50.5838C150.362 52.3979 148.743 53.8569 146.822 54.7938C144.774 55.8047 142.504 56.2795 140.222 56.1738Z" fill="black"/>
<path d="M159.832 30.2638L160.132 22.3738C160.105 22.1209 160.136 21.8649 160.225 21.6265C160.314 21.388 160.458 21.1737 160.644 21.0007C160.831 20.8277 161.056 20.7008 161.3 20.6301C161.544 20.5595 161.802 20.5471 162.052 20.5938L169.982 20.8938C170.235 20.8682 170.49 20.9016 170.727 20.9912C170.965 21.0809 171.178 21.2244 171.35 21.4105C171.523 21.5966 171.65 21.8202 171.721 22.0637C171.793 22.3072 171.807 22.564 171.762 22.8138C171.549 28.0538 171.359 33.3005 171.192 38.5538C171.026 43.8072 170.836 49.0638 170.622 54.3238C170.649 54.5856 170.614 54.8499 170.521 55.0957C170.427 55.3415 170.276 55.5618 170.082 55.7389C169.887 55.916 169.654 56.0449 169.4 56.1152C169.147 56.1855 168.88 56.1953 168.622 56.1438L160.622 55.8338C160.36 55.8636 160.095 55.8306 159.848 55.7374C159.602 55.6443 159.381 55.4938 159.204 55.2983C159.027 55.1029 158.899 54.8681 158.831 54.6134C158.763 54.3588 158.757 54.0915 158.812 53.8338C158.959 49.9005 159.129 45.9638 159.322 42.0238C159.512 38.1338 159.672 34.2038 159.832 30.2638ZM166.622 13.8438C165.705 13.8338 164.802 13.6236 163.974 13.2281C163.147 12.8325 162.416 12.2612 161.832 11.5538C160.649 10.1641 160.038 8.377 160.122 6.55385C160.154 5.65374 160.374 4.77025 160.768 3.96059C161.162 3.15094 161.723 2.43319 162.412 1.85385C163.051 1.23833 163.806 0.7574 164.634 0.439601C165.462 0.121802 166.346 -0.0263821 167.232 0.00384663C168.139 0.0264579 169.029 0.245624 169.842 0.646192C170.655 1.04676 171.372 1.61917 171.942 2.32385C173.173 3.69068 173.816 5.48676 173.732 7.32385C173.706 8.21598 173.494 9.09281 173.11 9.89854C172.726 10.7043 172.178 11.4213 171.502 12.0038C170.855 12.624 170.089 13.1068 169.25 13.423C168.412 13.7392 167.518 13.8824 166.622 13.8438Z" fill="black"/>
<path d="M183.092 20.3839C183.172 18.3105 183.229 16.2205 183.262 14.1139C183.296 12.0072 183.376 9.92052 183.502 7.85385C183.472 7.59824 183.5 7.339 183.586 7.09637C183.673 6.85374 183.814 6.6343 183.998 6.45518C184.183 6.27607 184.407 6.14213 184.652 6.06384C184.898 5.98555 185.158 5.96502 185.412 6.00385L194.252 6.34385C194.509 6.31839 194.767 6.35259 195.008 6.44379C195.249 6.535 195.466 6.68072 195.641 6.86956C195.817 7.0584 195.946 7.28525 196.019 7.53233C196.092 7.77942 196.107 8.04006 196.062 8.29385C195.982 10.3739 195.889 12.4639 195.782 14.5639C195.676 16.6639 195.586 18.7505 195.512 20.8239C195.496 20.9017 195.498 20.9824 195.519 21.0592C195.54 21.1361 195.579 21.2067 195.633 21.2654C195.687 21.3241 195.754 21.3691 195.828 21.3967C195.903 21.4242 195.983 21.4335 196.062 21.4238L200.842 21.6139C201.104 21.5841 201.369 21.6171 201.616 21.7102C201.863 21.8034 202.084 21.9539 202.261 22.1494C202.437 22.3448 202.565 22.5796 202.633 22.8343C202.701 23.0889 202.708 23.3562 202.652 23.6139C202.652 24.8739 202.552 26.1239 202.492 27.3639C202.432 28.6039 202.382 29.8539 202.332 31.1139C202.357 31.3652 202.322 31.6189 202.232 31.8547C202.141 32.0905 201.997 32.3021 201.811 32.4728C201.625 32.6435 201.402 32.7686 201.159 32.8381C200.916 32.9077 200.661 32.92 200.412 32.8738L195.632 32.6938C195.551 32.6764 195.468 32.6782 195.388 32.6989C195.308 32.7196 195.234 32.7587 195.172 32.8131C195.109 32.8675 195.061 32.9357 195.03 33.0122C194.999 33.0887 194.986 33.1715 194.992 33.2539C194.852 36.8939 194.732 40.5605 194.632 44.2538C194.532 47.9472 194.409 51.6138 194.262 55.2538C194.289 55.5156 194.254 55.7799 194.161 56.0257C194.067 56.2715 193.916 56.4918 193.722 56.6689C193.527 56.846 193.294 56.9749 193.04 57.0452C192.787 57.1155 192.52 57.1254 192.262 57.0738L183.422 56.7339C183.161 56.7614 182.897 56.7268 182.651 56.6329C182.406 56.539 182.186 56.3885 182.009 56.1936C181.833 55.9987 181.705 55.7649 181.636 55.5113C181.567 55.2576 181.559 54.9912 181.612 54.7339C181.752 51.0605 181.919 47.3938 182.112 43.7338C182.302 40.0638 182.462 36.4139 182.602 32.7339C182.602 32.3239 182.402 32.1139 181.942 32.0939C181.482 32.0739 180.942 32.0939 180.362 32.0939C179.822 32.1266 179.283 32.0126 178.802 31.7638C178.342 31.5338 178.142 30.9939 178.172 30.1439C178.222 28.8839 178.262 27.6439 178.292 26.3939C178.322 25.1439 178.372 23.9039 178.422 22.6439C178.422 21.7739 178.702 21.2439 179.172 21.0439C179.676 20.8414 180.225 20.7759 180.762 20.8538C181.309 20.9375 181.86 20.9876 182.412 21.0039C182.842 21.0039 183.082 20.7939 183.092 20.3839Z" fill="black"/>
<path d="M223.522 59.3039C217.596 59.0705 213.082 57.3372 209.982 54.1039C206.882 50.8705 205.449 46.2705 205.682 40.3039C205.758 36.9271 206.566 33.6071 208.052 30.5739C209.424 27.8353 211.579 25.566 214.242 24.0539C217.228 22.4587 220.607 21.7476 223.982 22.0039C228.809 22.1839 232.369 23.6672 234.662 26.4539C237.093 29.6167 238.58 33.4022 238.952 37.3739C239.024 37.7942 238.933 38.2262 238.697 38.5814C238.461 38.9365 238.098 39.1879 237.682 39.2839L219.182 44.8839C218.922 44.9739 218.782 45.1139 218.772 45.3039C218.779 45.4158 218.8 45.5265 218.832 45.6339C219.46 46.9437 220.485 48.0217 221.762 48.7139C223.034 49.3993 224.448 49.7793 225.892 49.8239C227.197 49.8815 228.503 49.7158 229.752 49.3339C230.998 48.9376 232.22 48.4702 233.412 47.9339C233.776 47.7525 234.176 47.6535 234.582 47.6439C234.758 47.6457 234.931 47.684 235.091 47.7563C235.251 47.8286 235.395 47.9333 235.512 48.0639C235.743 48.3288 235.917 48.6386 236.022 48.9739L237.932 54.0839C238.037 54.3514 238.088 54.6367 238.082 54.9239C238.083 55.2007 237.987 55.4693 237.812 55.6839C237.619 55.8937 237.401 56.0785 237.162 56.2339C235.148 57.4608 232.918 58.2923 230.592 58.6839C228.266 59.1537 225.895 59.3616 223.522 59.3039ZM218.052 38.3839C219.642 37.9139 221.222 37.4439 222.772 36.9639L227.412 35.5539C227.187 34.6399 226.709 33.808 226.032 33.1539C225.324 32.535 224.413 32.1971 223.472 32.2039C222.7 32.102 221.914 32.2208 221.207 32.5464C220.499 32.872 219.898 33.3911 219.472 34.0439C218.688 35.3698 218.204 36.851 218.052 38.3839Z" fill="black"/>
<path d="M41.27 22.24C38.86 18.97 34.33 17.43 28.77 17.56C32.01 24.36 25.77 35.14 14.33 42.74C19.96 35.34 21.9 27.69 18.69 22.31C18.1612 21.4568 17.5186 20.6797 16.78 20C13.5118 21.1804 10.3668 22.6775 7.39 24.47C5.52159 25.5881 3.72171 26.817 2 28.15L1 19.48C0.926635 18.8327 1.02691 18.1775 1.29052 17.5817C1.55414 16.9859 1.97159 16.4711 2.5 16.09C3.42 15.43 4.36 14.79 5.34 14.17C5.74 13.92 6.15 13.66 6.56 13.42C20.9 4.84 36.29 4.18 40.93 11.94C42.64 14.78 42.66 18.39 41.27 22.24Z" fill="black"/>
<path d="M48.76 40.57L48 47.4C47.9145 48.1717 47.5885 48.8969 47.068 49.473C46.5475 50.0491 45.859 50.4469 45.1 50.61L13.55 57.45L5.4 59.21L4.58 51.8C4.48055 50.8716 4.73385 49.9398 5.28961 49.1895C5.84536 48.4393 6.66294 47.9254 7.58 47.75C8.58 47.56 9.58 47.32 10.63 47.04C15.1104 45.7767 19.3992 43.9131 23.38 41.5C32.38 36.09 38.9 28.82 41.27 22.24C41.4367 22.4733 41.5967 22.7133 41.75 22.96C44.94 28.29 42.24 36.21 35.59 43.42L48.76 40.57Z" fill="#FFD74A"/>
</svg>
