<svg width="174" height="60" viewBox="0 0 174 60" fill="none" xmlns="http://www.w3.org/2000/svg">
<path d="M4.91226 16.0038C4.99226 13.9238 5.04886 11.8338 5.08226 9.73382C5.08226 7.63382 5.20227 5.54382 5.32227 3.47382C5.29817 3.22004 5.33226 2.96412 5.42176 2.72544C5.51126 2.48677 5.65396 2.2716 5.83896 2.09623C6.02396 1.92086 6.24646 1.78989 6.48956 1.71324C6.73266 1.63659 6.99006 1.61627 7.24226 1.65382L16.0823 1.99382C16.3442 1.96405 16.6095 1.9971 16.8561 2.09022C17.1027 2.18334 17.3236 2.33386 17.5005 2.52933C17.6774 2.72479 17.8052 2.95957 17.8733 3.21424C17.9414 3.46891 17.9479 3.73614 17.8923 3.99382C17.8123 6.07382 17.7223 8.15383 17.6123 10.2538C17.5023 12.3538 17.4223 14.4438 17.3423 16.5238C17.328 16.6014 17.3319 16.6813 17.3537 16.7571C17.3755 16.8329 17.4146 16.9026 17.4679 16.9608C17.5212 17.0189 17.5873 17.0639 17.6609 17.0922C17.7345 17.1205 17.8137 17.1313 17.8923 17.1238L22.6723 17.3038C22.934 17.2768 23.1983 17.3117 23.4441 17.4055C23.6899 17.4994 23.9102 17.6497 24.0873 17.8443C24.2644 18.0388 24.3933 18.2723 24.4636 18.5258C24.534 18.7793 24.5438 19.0458 24.4923 19.3038C24.4423 20.5538 24.3823 21.8038 24.3223 23.0538C24.2623 24.3038 24.2123 25.5438 24.1623 26.7938C24.19 27.0468 24.1581 27.3028 24.0692 27.5412C23.9803 27.7797 23.8368 27.994 23.6502 28.167C23.4635 28.34 23.239 28.4669 22.9945 28.5376C22.75 28.6082 22.4924 28.6206 22.2423 28.5738L17.4623 28.3938C17.3824 28.3767 17.2996 28.3783 17.2204 28.3985C17.1413 28.4187 17.0678 28.4569 17.0059 28.5101C16.9439 28.5634 16.8951 28.6302 16.8632 28.7055C16.8314 28.7807 16.8174 28.8623 16.8223 28.9438C16.6823 32.5905 16.5623 36.2572 16.4623 39.9438C16.3623 43.6305 16.2389 47.2972 16.0923 50.9438C16.122 51.2058 16.089 51.471 15.9959 51.7177C15.9027 51.9643 15.7522 52.1852 15.5568 52.3621C15.3613 52.539 15.1265 52.6668 14.8718 52.7349C14.6172 52.803 14.3499 52.8095 14.0923 52.7538L5.26226 52.4138C4.99996 52.4431 4.73456 52.4098 4.48776 52.3166C4.24086 52.2235 4.01966 52.0732 3.84206 51.8781C3.66446 51.683 3.53566 51.4485 3.46616 51.194C3.39666 50.9395 3.38846 50.6721 3.44226 50.4138C3.58226 46.7538 3.74886 43.0872 3.94226 39.4138C4.13556 35.7405 4.29886 32.0738 4.43226 28.4138C4.43226 28.0038 4.23226 27.7838 3.77226 27.7638C3.31226 27.7438 2.77226 27.7638 2.19226 27.7638C1.65296 27.7847 1.11686 27.6713 0.632264 27.4338C0.185564 27.1938 -0.0244412 26.6538 0.0022588 25.8138C0.0522588 24.5538 0.0922637 23.3038 0.132264 22.0638C0.172264 20.8238 0.202259 19.5638 0.252259 18.3138C0.252259 17.4438 0.542259 16.9038 1.00226 16.7038C1.50736 16.5059 2.05466 16.4405 2.59226 16.5138C3.18226 16.5838 3.70226 16.6238 4.16226 16.6338C4.62226 16.6438 4.90226 16.4438 4.91226 16.0038Z" fill="white"/>
<path d="M32.0622 53.3838C31.5747 53.3524 31.0901 53.2856 30.6122 53.1838C29.9922 53.0638 29.6923 52.7338 29.7123 52.1838C29.7299 51.8114 29.8786 51.4572 30.1323 51.1838C30.4023 50.8638 30.6423 50.5938 30.8723 50.3638C32.3023 48.9138 33.8723 47.3638 35.632 45.8138C37.392 44.2638 39.092 42.5638 40.792 40.8138C42.456 39.1626 44 37.3948 45.412 35.5238C46.689 33.783 47.7 31.862 48.412 29.8238C48.492 29.5638 48.612 29.1538 48.762 28.6038C48.888 28.2172 48.972 27.8183 49.012 27.4138C49.104 26.1136 48.684 24.8291 47.842 23.8338C47.412 23.3504 46.883 22.964 46.292 22.7002C45.7 22.4364 45.06 22.3013 44.412 22.3038C43.222 22.2441 42.034 22.474 40.952 22.9738C40.42 23.2485 39.979 23.6735 39.686 24.1961C39.393 24.7188 39.259 25.3161 39.302 25.9138C39.238 26.6008 39.363 27.2922 39.662 27.9138C39.902 28.3759 40.169 28.8234 40.462 29.2538C40.718 29.6265 40.844 30.0726 40.822 30.5238C40.819 30.7646 40.75 30.9999 40.622 31.2038C40.494 31.4117 40.354 31.612 40.202 31.8038C39.532 32.6438 38.752 33.5938 37.842 34.6338C36.932 35.6738 36.112 36.5738 35.382 37.3438C35.202 37.5323 35.005 37.7031 34.7923 37.8538C34.5701 37.9991 34.3072 38.0692 34.0423 38.0538C33.6419 38.026 33.2636 37.8599 32.9722 37.5838C31.7602 36.5424 30.7617 35.2757 30.0322 33.8538C29.2424 32.366 28.6571 30.7783 28.2923 29.1338C27.931 27.5809 27.773 25.9875 27.8223 24.3938C27.874 21.5078 28.7748 18.701 30.4123 16.3238C31.9773 14.0977 34.1117 12.3329 36.592 11.2138C39.2 10.0321 42.052 9.48716 44.912 9.62384H45.632C48.503 9.71914 51.312 10.4863 53.832 11.8638C56.281 13.1919 58.347 15.1272 59.832 17.4838C61.364 19.9409 62.091 22.8142 61.912 25.7038C61.836 27.5973 61.395 29.4581 60.612 31.1838C59.868 32.899 58.975 34.5454 57.942 36.1038C57.128 37.3546 56.25 38.5628 55.312 39.7238C54.865 40.195 54.482 40.7229 54.172 41.2938C54.172 41.4638 54.262 41.5738 54.462 41.6138C54.61 41.648 54.761 41.6714 54.912 41.6838L58.712 41.8338C58.965 41.8156 59.218 41.8535 59.454 41.945C59.69 42.0366 59.903 42.1793 60.077 42.363C60.251 42.5467 60.382 42.7667 60.461 43.0072C60.54 43.2477 60.564 43.5027 60.532 43.7538C60.567 44.3567 60.567 44.961 60.532 45.5638C60.532 46.1638 60.462 46.7738 60.462 47.3738C60.462 48.2238 60.462 49.0738 60.462 49.9438C60.462 50.8138 60.462 51.6738 60.392 52.5238C60.425 52.7876 60.394 53.0554 60.303 53.3049C60.211 53.5544 60.061 53.7784 59.866 53.9584C59.67 54.1383 59.434 54.269 59.178 54.3395C58.922 54.41 58.652 54.4184 58.392 54.3638L32.0622 53.3838Z" fill="#FFD74A"/>
<path d="M75.222 56.1738C73.479 56.0948 71.757 55.7578 70.112 55.1738C68.453 54.6107 66.939 53.6849 65.682 52.4638C65.512 52.3104 65.376 52.122 65.284 51.9115C65.193 51.701 65.1479 51.4733 65.1519 51.2438C65.2159 50.6555 65.353 50.0775 65.562 49.5238C65.822 48.7338 66.102 47.9338 66.412 47.1238C66.722 46.3138 66.942 45.7038 67.082 45.3038C67.22 44.9513 67.398 44.6158 67.612 44.3038C67.722 44.1448 67.873 44.0188 68.05 43.9395C68.226 43.8602 68.42 43.8306 68.612 43.8538C69.486 44.0035 70.316 44.3451 71.042 44.8538C72.093 45.4819 73.2889 45.8265 74.5119 45.8538C75.2239 45.8822 75.934 45.7701 76.602 45.5238C76.934 45.4001 77.217 45.1728 77.41 44.8757C77.603 44.5785 77.695 44.2273 77.672 43.8738C77.687 43.4834 77.6029 43.0955 77.4279 42.746C77.2529 42.3966 76.993 42.0966 76.672 41.8738C75.972 41.3354 75.214 40.8759 74.412 40.5038C73.674 40.1746 72.953 39.8074 72.252 39.4038C70.465 38.3538 69.001 36.8314 68.022 35.0038C67.065 33.1546 66.6199 31.0831 66.7319 29.0038C66.7219 26.8821 67.372 24.8098 68.592 23.0738C69.739 21.5616 71.308 20.4236 73.102 19.8038C75.082 19.1278 77.1719 18.8326 79.2619 18.9338C80.5129 18.9966 81.7569 19.1605 82.9819 19.4238C84.2149 19.6625 85.41 20.0697 86.532 20.6338C86.833 20.7447 87.091 20.9472 87.271 21.2128C87.45 21.4783 87.542 21.7935 87.532 22.1138C87.47 22.5532 87.376 22.9876 87.252 23.4138C87.062 24.1038 86.872 24.8138 86.662 25.5338L86.212 27.0038C86.111 27.3643 85.945 27.7033 85.722 28.0038C85.595 28.1533 85.432 28.2682 85.248 28.3381C85.065 28.408 84.867 28.4306 84.672 28.4038C84.093 28.3706 83.5219 28.2457 82.9819 28.0338C82.3709 27.8006 81.726 27.6689 81.072 27.6438C80.362 27.6292 79.656 27.7514 78.992 28.0038C78.652 28.1237 78.36 28.3498 78.158 28.6487C77.956 28.9477 77.8559 29.3036 77.8719 29.6638C77.8669 30.0574 77.944 30.4477 78.099 30.8094C78.254 31.1712 78.484 31.4964 78.772 31.7638C79.467 32.4751 80.254 33.0906 81.112 33.5938C82.052 34.1638 82.9619 34.7138 83.8419 35.2238C84.5809 35.6376 85.275 36.1268 85.912 36.6838C86.892 37.613 87.586 38.8032 87.912 40.1138C88.266 41.4166 88.424 42.7646 88.382 44.1138C88.343 46.4009 87.69 48.6354 86.492 50.5838C85.362 52.3979 83.743 53.8569 81.822 54.7938C79.774 55.8047 77.504 56.2795 75.222 56.1738Z" fill="white"/>
<path d="M94.8319 30.2638L95.132 22.3738C95.105 22.1209 95.136 21.8649 95.225 21.6265C95.314 21.388 95.4579 21.1737 95.6439 21.0007C95.8309 20.8277 96.056 20.7008 96.3 20.6301C96.544 20.5595 96.8019 20.5471 97.0519 20.5938L104.982 20.8938C105.235 20.8682 105.49 20.9016 105.727 20.9912C105.965 21.0809 106.178 21.2244 106.35 21.4105C106.523 21.5966 106.65 21.8202 106.721 22.0637C106.793 22.3072 106.807 22.564 106.762 22.8138C106.549 28.0538 106.359 33.3005 106.192 38.5538C106.026 43.8072 105.836 49.0638 105.622 54.3238C105.649 54.5856 105.614 54.8499 105.521 55.0957C105.427 55.3415 105.276 55.5618 105.082 55.7389C104.887 55.916 104.654 56.0449 104.4 56.1152C104.147 56.1855 103.88 56.1953 103.622 56.1438L95.6219 55.8338C95.3599 55.8636 95.095 55.8306 94.848 55.7374C94.602 55.6443 94.3809 55.4938 94.2039 55.2983C94.0269 55.1029 93.8989 54.8681 93.8309 54.6134C93.7629 54.3588 93.7569 54.0915 93.8119 53.8338C93.9589 49.9005 94.129 45.9638 94.322 42.0238C94.512 38.1338 94.6719 34.2038 94.8319 30.2638ZM101.622 13.8438C100.705 13.8338 99.8019 13.6236 98.9739 13.2281C98.1469 12.8325 97.4159 12.2612 96.8319 11.5538C95.6489 10.1641 95.0379 8.377 95.1219 6.55385C95.1539 5.65374 95.374 4.77025 95.768 3.96059C96.162 3.15094 96.723 2.43319 97.412 1.85385C98.051 1.23833 98.806 0.7574 99.634 0.439601C100.462 0.121802 101.346 -0.0263821 102.232 0.00384664C103.139 0.0264579 104.029 0.245624 104.842 0.646192C105.655 1.04676 106.372 1.61917 106.942 2.32385C108.173 3.69068 108.816 5.48676 108.732 7.32385C108.706 8.21598 108.494 9.09281 108.11 9.89854C107.726 10.7043 107.178 11.4213 106.502 12.0038C105.855 12.624 105.089 13.1068 104.25 13.423C103.412 13.7392 102.518 13.8824 101.622 13.8438Z" fill="white"/>
<path d="M118.092 20.3839C118.172 18.3105 118.229 16.2205 118.262 14.1139C118.296 12.0072 118.376 9.92052 118.502 7.85385C118.472 7.59824 118.5 7.339 118.586 7.09637C118.673 6.85374 118.814 6.6343 118.998 6.45518C119.183 6.27607 119.407 6.14213 119.652 6.06384C119.898 5.98555 120.158 5.96502 120.412 6.00385L129.252 6.34385C129.509 6.31839 129.767 6.35259 130.008 6.44379C130.249 6.535 130.466 6.68072 130.641 6.86956C130.817 7.0584 130.946 7.28525 131.019 7.53233C131.092 7.77942 131.107 8.04006 131.062 8.29385C130.982 10.3739 130.889 12.4639 130.782 14.5639C130.676 16.6639 130.586 18.7505 130.512 20.8239C130.496 20.9017 130.498 20.9824 130.519 21.0592C130.54 21.1361 130.579 21.2067 130.633 21.2654C130.687 21.3241 130.754 21.3691 130.828 21.3967C130.903 21.4242 130.983 21.4335 131.062 21.4238L135.842 21.6139C136.104 21.5841 136.369 21.6171 136.616 21.7102C136.863 21.8034 137.084 21.9539 137.261 22.1494C137.437 22.3448 137.565 22.5796 137.633 22.8343C137.701 23.0889 137.708 23.3562 137.652 23.6139C137.652 24.8739 137.552 26.1239 137.492 27.3639C137.432 28.6039 137.382 29.8539 137.332 31.1139C137.357 31.3652 137.322 31.6189 137.232 31.8547C137.141 32.0905 136.997 32.3021 136.811 32.4728C136.625 32.6435 136.402 32.7686 136.159 32.8381C135.916 32.9077 135.661 32.92 135.412 32.8738L130.632 32.6938C130.551 32.6764 130.468 32.6782 130.388 32.6989C130.308 32.7196 130.234 32.7587 130.172 32.8131C130.109 32.8675 130.061 32.9357 130.03 33.0122C129.999 33.0887 129.986 33.1715 129.992 33.2539C129.852 36.8939 129.732 40.5605 129.632 44.2538C129.532 47.9472 129.409 51.6138 129.262 55.2538C129.289 55.5156 129.254 55.7799 129.161 56.0257C129.067 56.2715 128.916 56.4918 128.722 56.6689C128.527 56.846 128.294 56.9749 128.04 57.0452C127.787 57.1155 127.52 57.1254 127.262 57.0738L118.422 56.7339C118.161 56.7614 117.897 56.7268 117.651 56.6329C117.406 56.539 117.186 56.3885 117.009 56.1936C116.833 55.9987 116.705 55.7649 116.636 55.5113C116.567 55.2576 116.559 54.9912 116.612 54.7339C116.752 51.0605 116.919 47.3938 117.112 43.7338C117.302 40.0638 117.462 36.4139 117.602 32.7339C117.602 32.3239 117.402 32.1139 116.942 32.0939C116.482 32.0739 115.942 32.0939 115.362 32.0939C114.822 32.1266 114.283 32.0126 113.802 31.7638C113.342 31.5338 113.142 30.9939 113.172 30.1439C113.222 28.8839 113.262 27.6439 113.292 26.3939C113.322 25.1439 113.372 23.9039 113.422 22.6439C113.422 21.7739 113.702 21.2439 114.172 21.0439C114.676 20.8414 115.225 20.7759 115.762 20.8538C116.309 20.9375 116.86 20.9876 117.412 21.0039C117.842 21.0039 118.082 20.7939 118.092 20.3839Z" fill="white"/>
<path d="M158.522 59.3039C152.596 59.0705 148.082 57.3372 144.982 54.1039C141.882 50.8705 140.449 46.2705 140.682 40.3039C140.758 36.9271 141.566 33.6071 143.052 30.5739C144.424 27.8353 146.579 25.566 149.242 24.0539C152.228 22.4587 155.607 21.7476 158.982 22.0039C163.809 22.1839 167.369 23.6672 169.662 26.4539C172.093 29.6167 173.58 33.4022 173.952 37.3739C174.024 37.7942 173.933 38.2262 173.697 38.5814C173.461 38.9365 173.098 39.1879 172.682 39.2839L154.182 44.8839C153.922 44.9739 153.782 45.1139 153.772 45.3039C153.779 45.4158 153.8 45.5265 153.832 45.6339C154.46 46.9437 155.485 48.0217 156.762 48.7139C158.034 49.3993 159.448 49.7793 160.892 49.8239C162.197 49.8815 163.503 49.7158 164.752 49.3339C165.998 48.9376 167.22 48.4702 168.412 47.9339C168.776 47.7525 169.176 47.6535 169.582 47.6439C169.758 47.6457 169.931 47.684 170.091 47.7563C170.251 47.8286 170.395 47.9333 170.512 48.0639C170.743 48.3288 170.917 48.6386 171.022 48.9739L172.932 54.0839C173.037 54.3514 173.088 54.6367 173.082 54.9239C173.083 55.2007 172.987 55.4693 172.812 55.6839C172.619 55.8937 172.401 56.0785 172.162 56.2339C170.148 57.4608 167.918 58.2923 165.592 58.6839C163.266 59.1537 160.895 59.3616 158.522 59.3039ZM153.052 38.3839C154.642 37.9139 156.222 37.4439 157.772 36.9639L162.412 35.5539C162.187 34.6399 161.709 33.808 161.032 33.1539C160.324 32.535 159.413 32.1971 158.472 32.2039C157.7 32.102 156.914 32.2208 156.207 32.5464C155.499 32.872 154.898 33.3911 154.472 34.0439C153.688 35.3698 153.204 36.851 153.052 38.3839Z" fill="white"/>
</svg>
