<svg width="62" height="53" viewBox="0 0 62 53" fill="none" xmlns="http://www.w3.org/2000/svg">
<path d="M4.91226 14.3683C4.99226 12.2883 5.04886 10.1983 5.08226 8.09833C5.08226 5.99833 5.20227 3.90833 5.32227 1.83833C5.29817 1.58455 5.33226 1.32863 5.42176 1.08995C5.51126 0.851277 5.65396 0.636107 5.83896 0.460737C6.02396 0.285367 6.24646 0.154397 6.48956 0.0777468C6.73266 0.00109676 6.99006 -0.0192233 7.24226 0.0183267L16.0823 0.358327C16.3442 0.328557 16.6095 0.361607 16.8561 0.454727C17.1027 0.547847 17.3236 0.698367 17.5005 0.893837C17.6774 1.0893 17.8052 1.32408 17.8733 1.57875C17.9414 1.83342 17.9479 2.10065 17.8923 2.35833C17.8123 4.43833 17.7223 6.51833 17.6123 8.61829C17.5023 10.7183 17.4223 12.8083 17.3423 14.8883C17.328 14.9659 17.3319 15.0458 17.3537 15.1216C17.3755 15.1974 17.4146 15.2671 17.4679 15.3253C17.5212 15.3834 17.5873 15.4284 17.6609 15.4567C17.7345 15.485 17.8137 15.4958 17.8923 15.4883L22.6723 15.6683C22.934 15.6413 23.1983 15.6762 23.4441 15.77C23.6899 15.8639 23.9102 16.0142 24.0873 16.2088C24.2644 16.4033 24.3933 16.6368 24.4636 16.8903C24.534 17.1438 24.5438 17.4103 24.4923 17.6683C24.4423 18.9183 24.3823 20.1683 24.3223 21.4183C24.2623 22.6683 24.2123 23.9083 24.1623 25.1583C24.19 25.4113 24.1581 25.6673 24.0692 25.9057C23.9803 26.1442 23.8368 26.3585 23.6502 26.5315C23.4635 26.7045 23.239 26.8314 22.9945 26.9021C22.75 26.9727 22.4924 26.9851 22.2423 26.9383L17.4623 26.7583C17.3824 26.7412 17.2996 26.7428 17.2204 26.763C17.1413 26.7832 17.0678 26.8214 17.0059 26.8746C16.9439 26.9279 16.8951 26.9947 16.8632 27.07C16.8314 27.1452 16.8174 27.2268 16.8223 27.3083C16.6823 30.955 16.5623 34.6217 16.4623 38.3083C16.3623 41.995 16.2389 45.6617 16.0923 49.3083C16.122 49.5703 16.089 49.8355 15.9959 50.0822C15.9027 50.3288 15.7522 50.5497 15.5568 50.7266C15.3613 50.9035 15.1265 51.0313 14.8718 51.0994C14.6172 51.1675 14.3499 51.174 14.0923 51.1183L5.26226 50.7783C4.99996 50.8076 4.73456 50.7743 4.48776 50.6811C4.24086 50.588 4.01966 50.4377 3.84206 50.2426C3.66446 50.0475 3.53566 49.813 3.46616 49.5585C3.39666 49.304 3.38846 49.0366 3.44226 48.7783C3.58226 45.1183 3.74886 41.4517 3.94226 37.7783C4.13556 34.105 4.29886 30.4383 4.43226 26.7783C4.43226 26.3683 4.23226 26.1483 3.77226 26.1283C3.31226 26.1083 2.77226 26.1283 2.19226 26.1283C1.65296 26.1492 1.11686 26.0358 0.632264 25.7983C0.185564 25.5583 -0.0244412 25.0183 0.0022588 24.1783C0.0522588 22.9183 0.0922637 21.6683 0.132264 20.4283C0.172264 19.1883 0.202259 17.9283 0.252259 16.6783C0.252259 15.8083 0.542259 15.2683 1.00226 15.0683C1.50736 14.8704 2.05466 14.805 2.59226 14.8783C3.18226 14.9483 3.70226 14.9883 4.16226 14.9983C4.62226 15.0083 4.90226 14.8083 4.91226 14.3683Z" fill="white"/>
<path d="M32.0622 51.7483C31.5747 51.7169 31.0901 51.6501 30.6122 51.5483C29.9922 51.4283 29.6923 51.0983 29.7123 50.5483C29.7299 50.1759 29.8786 49.8217 30.1323 49.5483C30.4023 49.2283 30.6423 48.9583 30.8723 48.7283C32.3023 47.2783 33.8723 45.7283 35.632 44.1783C37.392 42.6283 39.092 40.9283 40.792 39.1783C42.456 37.5271 44 35.7593 45.412 33.8883C46.689 32.1475 47.7 30.2265 48.412 28.1883C48.492 27.9283 48.612 27.5183 48.762 26.9683C48.888 26.5817 48.972 26.1828 49.012 25.7783C49.104 24.4781 48.684 23.1936 47.842 22.1983C47.412 21.7149 46.883 21.3285 46.292 21.0647C45.7 20.8009 45.06 20.6658 44.412 20.6683C43.222 20.6086 42.034 20.8385 40.952 21.3383C40.42 21.613 39.979 22.038 39.686 22.5606C39.393 23.0833 39.259 23.6806 39.302 24.2783C39.238 24.9653 39.363 25.6567 39.662 26.2783C39.902 26.7404 40.169 27.1879 40.462 27.6183C40.718 27.991 40.844 28.4371 40.822 28.8883C40.819 29.1291 40.75 29.3644 40.622 29.5683C40.494 29.7762 40.354 29.9765 40.202 30.1683C39.532 31.0083 38.752 31.9583 37.842 32.9983C36.932 34.0383 36.112 34.9383 35.382 35.7083C35.202 35.8968 35.005 36.0676 34.7923 36.2183C34.5701 36.3636 34.3072 36.4337 34.0423 36.4183C33.6419 36.3905 33.2636 36.2244 32.9722 35.9483C31.7602 34.9069 30.7617 33.6402 30.0322 32.2183C29.2424 30.7305 28.6571 29.1428 28.2923 27.4983C27.931 25.9454 27.773 24.352 27.8223 22.7583C27.874 19.8723 28.7748 17.0655 30.4123 14.6883C31.9773 12.4622 34.1117 10.6974 36.592 9.5783C39.2 8.3966 42.052 7.85166 44.912 7.98834H45.632C48.503 8.08364 51.312 8.8508 53.832 10.2283C56.281 11.5564 58.347 13.4917 59.832 15.8483C61.364 18.3054 62.091 21.1787 61.912 24.0683C61.836 25.9618 61.395 27.8226 60.612 29.5483C59.868 31.2635 58.975 32.9099 57.942 34.4683C57.128 35.7191 56.25 36.9273 55.312 38.0883C54.865 38.5595 54.482 39.0874 54.172 39.6583C54.172 39.8283 54.262 39.9383 54.462 39.9783C54.61 40.0125 54.761 40.0359 54.912 40.0483L58.712 40.1983C58.965 40.1801 59.218 40.218 59.454 40.3095C59.69 40.4011 59.903 40.5438 60.077 40.7275C60.251 40.9112 60.382 41.1312 60.461 41.3717C60.54 41.6122 60.564 41.8672 60.532 42.1183C60.567 42.7212 60.567 43.3255 60.532 43.9283C60.532 44.5283 60.462 45.1383 60.462 45.7383C60.462 46.5883 60.462 47.4383 60.462 48.3083C60.462 49.1783 60.462 50.0383 60.392 50.8883C60.425 51.1521 60.394 51.4199 60.303 51.6694C60.211 51.9189 60.061 52.1429 59.866 52.3229C59.67 52.5028 59.434 52.6335 59.178 52.704C58.922 52.7745 58.652 52.7829 58.392 52.7283L32.0622 51.7483Z" fill="#FFD74A"/>
</svg>
